<svg xmlns="http://www.w3.org/2000/svg" xmlns:xlink="http://www.w3.org/1999/xlink" width="500" zoomAndPan="magnify" viewBox="0 0 375 374.999991" height="500" preserveAspectRatio="xMidYMid meet" version="1.0"><defs><g/><clipPath id="1fe4fa173a"><path d="M 68.804688 149.9375 L 155.054688 149.9375 L 155.054688 224.9375 L 68.804688 224.9375 Z M 68.804688 149.9375 " clip-rule="nonzero"/></clipPath></defs><g clip-path="url(#1fe4fa173a)"><path fill="#ffffff" d="M 102.636719 200.929688 L 104.992188 200.929688 C 105.992188 200.929688 106.808594 201.742188 106.808594 202.734375 C 106.808594 203.726562 105.992188 204.539062 104.992188 204.539062 L 102.636719 204.539062 C 101.636719 204.539062 100.824219 203.726562 100.824219 202.734375 C 100.824219 201.742188 101.636719 200.929688 102.636719 200.929688 Z M 97.832031 164.332031 C 98.644531 164.152344 99.234375 163.429688 99.234375 162.574219 C 99.234375 161.671875 98.554688 160.902344 97.695312 160.765625 L 90.078125 160.765625 C 89.078125 160.765625 88.265625 159.957031 88.265625 158.960938 C 88.265625 157.96875 89.078125 157.15625 90.078125 157.15625 L 101.367188 157.15625 C 102.363281 157.15625 103.179688 156.34375 103.179688 155.351562 C 103.179688 154.449219 102.5 153.683594 101.636719 153.546875 L 92.296875 153.546875 C 91.300781 153.546875 90.484375 152.734375 90.484375 151.742188 C 90.484375 150.75 91.300781 149.9375 92.296875 149.9375 L 151.738281 149.9375 C 153.550781 149.9375 155.003906 151.382812 155.003906 153.1875 L 155.003906 161.894531 C 155.003906 163.699219 153.550781 165.144531 151.738281 165.144531 L 135.324219 165.144531 C 133.511719 165.144531 132.0625 166.589844 132.0625 168.394531 L 132.0625 221.6875 C 132.0625 223.492188 130.609375 224.9375 128.796875 224.9375 L 113.699219 224.9375 C 113.652344 224.800781 113.652344 224.621094 113.652344 224.484375 C 113.652344 223.492188 114.46875 222.679688 115.46875 222.679688 L 118.1875 222.679688 C 119.183594 222.679688 120 221.867188 120 220.875 C 120 219.882812 119.183594 219.070312 118.1875 219.070312 L 112.566406 219.070312 C 111.566406 219.070312 110.75 218.257812 110.75 217.265625 C 110.75 216.273438 111.566406 215.460938 112.566406 215.460938 L 107.894531 215.460938 L 115.695312 215.460938 C 116.691406 215.460938 117.507812 214.648438 117.507812 213.65625 C 117.507812 212.664062 116.691406 211.851562 115.695312 211.851562 L 112.113281 211.851562 C 111.113281 211.851562 110.296875 211.039062 110.296875 210.046875 C 110.296875 209.050781 111.113281 208.242188 112.113281 208.242188 L 119.730469 208.242188 C 120.726562 208.242188 121.542969 207.429688 121.542969 206.433594 C 121.542969 205.441406 120.726562 204.628906 119.730469 204.628906 L 109.84375 204.628906 C 108.847656 204.628906 108.03125 203.816406 108.03125 202.824219 C 108.03125 201.832031 108.847656 201.019531 109.84375 201.019531 L 116.691406 201.019531 C 117.6875 201.019531 118.503906 200.207031 118.503906 199.214844 C 118.503906 198.222656 117.6875 197.410156 116.691406 197.410156 L 107.53125 197.410156 C 106.535156 197.410156 105.71875 196.597656 105.71875 195.605469 C 105.71875 194.613281 106.535156 193.800781 107.53125 193.800781 L 121.90625 193.800781 C 122.902344 193.800781 123.71875 192.988281 123.71875 191.996094 C 123.71875 191.003906 122.902344 190.191406 121.90625 190.191406 L 113.289062 190.191406 C 112.292969 190.191406 111.476562 189.378906 111.476562 188.382812 C 111.476562 187.390625 112.292969 186.578125 113.289062 186.578125 L 117.960938 186.578125 C 118.957031 186.578125 119.773438 185.765625 119.773438 184.773438 C 119.773438 183.78125 118.957031 182.96875 117.960938 182.96875 L 111.023438 182.96875 C 110.027344 182.96875 109.210938 182.15625 109.210938 181.164062 C 109.210938 180.171875 110.027344 179.359375 111.023438 179.359375 L 122.3125 179.359375 C 123.308594 179.359375 124.125 178.546875 124.125 177.554688 C 124.125 176.5625 123.308594 175.75 122.3125 175.75 L 103.316406 175.75 C 102.320312 175.75 101.503906 174.9375 101.503906 173.945312 C 101.503906 172.953125 102.320312 172.140625 103.316406 172.140625 L 116.464844 172.140625 C 117.460938 172.140625 118.277344 171.328125 118.277344 170.335938 C 118.277344 169.339844 117.460938 168.527344 116.464844 168.527344 C 108.53125 168.527344 100.640625 168.574219 92.707031 168.574219 C 91.710938 168.574219 90.894531 167.761719 90.894531 166.769531 C 90.894531 165.777344 91.710938 164.964844 92.707031 164.964844 L 97.832031 164.964844 Z M 100.1875 186.171875 L 105.402344 186.171875 C 106.398438 186.171875 107.214844 186.984375 107.214844 187.980469 C 107.214844 188.972656 106.398438 189.785156 105.402344 189.785156 L 84.183594 189.785156 C 83.1875 189.785156 82.371094 188.972656 82.371094 187.980469 C 82.371094 186.984375 83.1875 186.171875 84.183594 186.171875 Z M 70.671875 157.113281 L 73.03125 157.113281 C 74.027344 157.113281 74.84375 157.925781 74.84375 158.917969 C 74.84375 159.910156 74.027344 160.722656 73.03125 160.722656 L 70.671875 160.722656 C 69.675781 160.722656 68.859375 159.910156 68.859375 158.917969 C 68.859375 157.925781 69.675781 157.113281 70.671875 157.113281 Z M 77.972656 157.113281 L 84.910156 157.113281 C 85.90625 157.113281 86.722656 157.925781 86.722656 158.917969 C 86.722656 159.910156 85.90625 160.722656 84.910156 160.722656 L 77.972656 160.722656 C 76.972656 160.722656 76.160156 159.910156 76.160156 158.917969 C 76.113281 157.925781 76.972656 157.113281 77.972656 157.113281 Z M 104.539062 215.324219 L 106.625 215.324219 C 107.625 215.324219 108.4375 216.136719 108.4375 217.128906 C 108.4375 218.121094 107.625 218.933594 106.625 218.933594 L 104.539062 218.933594 C 103.542969 218.933594 102.726562 218.121094 102.726562 217.128906 C 102.726562 216.136719 103.542969 215.324219 104.539062 215.324219 Z M 97.148438 193.4375 L 101.636719 193.4375 C 102.636719 193.4375 103.453125 194.25 103.453125 195.242188 C 103.453125 196.238281 102.636719 197.050781 101.636719 197.050781 L 97.148438 197.050781 C 96.152344 197.050781 95.335938 196.238281 95.335938 195.242188 C 95.335938 194.25 96.152344 193.4375 97.148438 193.4375 Z M 83.730469 164.332031 L 85.363281 164.332031 C 86.359375 164.332031 87.175781 165.144531 87.175781 166.136719 C 87.175781 167.128906 86.359375 167.941406 85.363281 167.941406 L 83.730469 167.941406 C 82.730469 167.941406 81.917969 167.128906 81.917969 166.136719 C 81.917969 165.144531 82.730469 164.332031 83.730469 164.332031 Z M 96.695312 208.015625 L 104.496094 208.015625 C 105.492188 208.015625 106.308594 208.828125 106.308594 209.820312 C 106.308594 210.8125 105.492188 211.625 104.496094 211.625 L 96.695312 211.625 C 95.699219 211.625 94.882812 210.8125 94.882812 209.820312 C 94.882812 208.871094 95.699219 208.015625 96.695312 208.015625 Z M 89.625 171.597656 L 96.695312 171.597656 C 97.695312 171.597656 98.511719 172.410156 98.511719 173.402344 C 98.511719 174.394531 97.695312 175.207031 96.695312 175.207031 L 89.625 175.207031 C 88.625 175.207031 87.808594 174.394531 87.808594 173.402344 C 87.808594 172.410156 88.625 171.597656 89.625 171.597656 Z M 89.625 171.597656 " fill-opacity="1" fill-rule="evenodd"/></g><g fill="#ffffff" fill-opacity="1"><g transform="translate(166.113846, 198.379381)"><g><path d="M 6.359375 -0.445312 C 6.359375 -0.1875 6.546875 0 6.804688 0 L 12.25 0 C 12.507812 0 12.695312 -0.1875 12.695312 -0.445312 L 12.695312 -20.136719 C 12.695312 -20.394531 12.882812 -20.582031 13.140625 -20.582031 L 13.679688 -20.582031 C 13.941406 -20.582031 14.128906 -20.394531 14.128906 -20.136719 L 14.128906 -17.484375 C 14.128906 -17.226562 14.316406 -17.039062 14.574219 -17.039062 L 15.089844 -17.039062 C 15.347656 -17.039062 15.535156 -16.851562 15.535156 -16.589844 L 15.535156 -16.074219 C 15.535156 -15.816406 15.722656 -15.628906 15.980469 -15.628906 L 17.90625 -15.628906 C 18.164062 -15.628906 18.351562 -15.816406 18.351562 -16.074219 L 18.351562 -21.519531 C 18.351562 -21.777344 18.164062 -21.964844 17.90625 -21.964844 L 1.148438 -21.964844 C 0.890625 -21.964844 0.703125 -21.777344 0.703125 -21.519531 L 0.703125 -16.074219 C 0.703125 -15.816406 0.890625 -15.628906 1.148438 -15.628906 L 3.074219 -15.628906 C 3.332031 -15.628906 3.519531 -15.816406 3.519531 -16.074219 L 3.519531 -16.589844 C 3.519531 -16.851562 3.707031 -17.039062 3.964844 -17.039062 L 4.480469 -17.039062 C 4.742188 -17.039062 4.929688 -17.226562 4.929688 -17.484375 L 4.929688 -20.136719 C 4.929688 -20.394531 5.117188 -20.582031 5.375 -20.582031 L 5.914062 -20.582031 C 6.171875 -20.582031 6.359375 -20.394531 6.359375 -20.136719 Z M 6.359375 -0.445312 "/></g></g></g><g fill="#ffffff" fill-opacity="1"><g transform="translate(189.670334, 198.379381)"><g><path d="M 7.980469 -20.113281 C 7.980469 -20.394531 8.144531 -20.558594 8.425781 -20.558594 L 8.941406 -20.558594 C 9.222656 -20.558594 9.386719 -20.394531 9.386719 -20.113281 L 9.386719 -19.59375 C 9.386719 -19.3125 9.550781 -19.148438 9.832031 -19.148438 L 10.347656 -19.148438 C 10.628906 -19.148438 10.796875 -18.984375 10.796875 -18.703125 L 10.796875 -12.742188 C 10.796875 -12.460938 10.628906 -12.296875 10.347656 -12.296875 L 9.832031 -12.296875 C 9.550781 -12.296875 9.386719 -12.132812 9.386719 -11.851562 L 9.386719 -11.335938 C 9.386719 -11.054688 9.222656 -10.890625 8.941406 -10.890625 L 8.425781 -10.890625 C 8.144531 -10.890625 7.980469 -11.054688 7.980469 -11.335938 Z M 1.644531 -0.445312 C 1.644531 -0.1875 1.832031 0 2.089844 0 L 7.53125 0 C 7.792969 0 7.980469 -0.1875 7.980469 -0.445312 L 7.980469 -9.035156 C 7.980469 -9.292969 8.167969 -9.480469 8.425781 -9.480469 L 8.941406 -9.480469 C 9.199219 -9.480469 9.386719 -9.292969 9.386719 -9.035156 L 9.386719 -8.519531 C 9.386719 -8.261719 9.574219 -8.074219 9.832031 -8.074219 L 10.347656 -8.074219 C 10.605469 -8.074219 10.796875 -7.886719 10.796875 -7.625 L 10.796875 -0.445312 C 10.796875 -0.1875 10.984375 0 11.242188 0 L 16.683594 0 C 16.945312 0 17.132812 -0.1875 17.132812 -0.445312 L 17.132812 -7.625 C 17.132812 -7.886719 16.945312 -8.074219 16.683594 -8.074219 L 16.167969 -8.074219 C 15.910156 -8.074219 15.722656 -8.261719 15.722656 -8.519531 L 15.722656 -9.035156 C 15.722656 -9.292969 15.535156 -9.480469 15.277344 -9.480469 L 12.648438 -9.480469 C 12.390625 -9.480469 12.203125 -9.667969 12.203125 -9.925781 L 12.203125 -10.441406 C 12.203125 -10.703125 12.390625 -10.890625 12.648438 -10.890625 L 15.277344 -10.890625 C 15.535156 -10.890625 15.722656 -11.078125 15.722656 -11.335938 L 15.722656 -11.851562 C 15.722656 -12.109375 15.910156 -12.296875 16.167969 -12.296875 L 16.683594 -12.296875 C 16.945312 -12.296875 17.132812 -12.484375 17.132812 -12.742188 L 17.132812 -18.703125 C 17.132812 -18.960938 16.945312 -19.148438 16.683594 -19.148438 L 16.167969 -19.148438 C 15.910156 -19.148438 15.722656 -19.335938 15.722656 -19.59375 L 15.722656 -20.113281 C 15.722656 -20.371094 15.535156 -20.558594 15.277344 -20.558594 L 14.761719 -20.558594 C 14.503906 -20.558594 14.316406 -20.746094 14.316406 -21.003906 L 14.316406 -21.519531 C 14.316406 -21.777344 14.128906 -21.964844 13.871094 -21.964844 L 2.089844 -21.964844 C 1.832031 -21.964844 1.644531 -21.777344 1.644531 -21.519531 Z M 1.644531 -0.445312 "/></g></g></g><g fill="#ffffff" fill-opacity="1"><g transform="translate(212.945298, 198.379381)"><g><path d="M 4.457031 -0.445312 C 4.457031 -0.1875 4.648438 0 4.90625 0 L 13.871094 0 C 14.128906 0 14.316406 -0.1875 14.316406 -0.445312 L 14.316406 -0.960938 C 14.316406 -1.21875 14.503906 -1.40625 14.761719 -1.40625 L 15.277344 -1.40625 C 15.535156 -1.40625 15.722656 -1.597656 15.722656 -1.855469 L 15.722656 -2.371094 C 15.722656 -2.628906 15.910156 -2.816406 16.167969 -2.816406 L 16.683594 -2.816406 C 16.945312 -2.816406 17.132812 -3.003906 17.132812 -3.261719 L 17.132812 -21.519531 C 17.132812 -21.777344 16.945312 -21.964844 16.683594 -21.964844 L 11.242188 -21.964844 C 10.960938 -21.964844 10.796875 -21.800781 10.796875 -21.519531 L 10.796875 -3.261719 C 10.796875 -2.980469 10.628906 -2.816406 10.347656 -2.816406 L 9.832031 -2.816406 C 9.550781 -2.816406 9.386719 -2.652344 9.386719 -2.371094 L 9.386719 -1.855469 C 9.386719 -1.574219 9.222656 -1.40625 8.941406 -1.40625 L 8.425781 -1.40625 C 8.144531 -1.40625 7.980469 -1.574219 7.980469 -1.855469 L 7.980469 -21.519531 C 7.980469 -21.777344 7.792969 -21.964844 7.53125 -21.964844 L 2.089844 -21.964844 C 1.832031 -21.964844 1.644531 -21.777344 1.644531 -21.519531 L 1.644531 -3.261719 C 1.644531 -3.003906 1.832031 -2.816406 2.089844 -2.816406 L 2.605469 -2.816406 C 2.863281 -2.816406 3.050781 -2.628906 3.050781 -2.371094 L 3.050781 -1.855469 C 3.050781 -1.597656 3.238281 -1.40625 3.496094 -1.40625 L 4.011719 -1.40625 C 4.269531 -1.40625 4.457031 -1.21875 4.457031 -0.960938 Z M 4.457031 -0.445312 "/></g></g></g><g fill="#ffffff" fill-opacity="1"><g transform="translate(236.220261, 198.379381)"><g><path d="M 2.464844 -0.445312 C 2.464844 -0.1875 2.628906 0 2.886719 0 L 13.5625 0 C 13.824219 0 13.988281 -0.1875 13.988281 -0.445312 L 13.988281 -0.960938 C 13.988281 -1.21875 14.175781 -1.40625 14.433594 -1.40625 L 14.949219 -1.40625 C 15.207031 -1.40625 15.394531 -1.597656 15.394531 -1.855469 L 15.394531 -2.347656 C 15.394531 -2.628906 15.582031 -2.816406 15.863281 -2.816406 L 16.332031 -2.816406 C 16.613281 -2.816406 16.800781 -3.003906 16.800781 -3.285156 L 16.800781 -8.824219 C 16.800781 -9.105469 16.613281 -9.292969 16.332031 -9.292969 L 15.863281 -9.292969 C 15.582031 -9.292969 15.394531 -9.480469 15.394531 -9.761719 L 15.394531 -10.253906 C 15.394531 -10.511719 15.207031 -10.703125 14.949219 -10.703125 L 14.433594 -10.703125 C 14.175781 -10.703125 13.988281 -10.890625 13.988281 -11.148438 L 13.988281 -11.664062 C 13.988281 -11.921875 13.800781 -12.109375 13.539062 -12.109375 L 9.738281 -12.109375 C 9.480469 -12.109375 9.292969 -12.296875 9.292969 -12.554688 L 9.292969 -13.070312 C 9.292969 -13.328125 9.105469 -13.515625 8.847656 -13.515625 L 8.097656 -13.515625 C 7.839844 -13.515625 7.652344 -13.703125 7.652344 -13.964844 L 7.652344 -18.703125 C 7.652344 -18.960938 7.839844 -19.148438 8.097656 -19.148438 L 8.613281 -19.148438 C 8.871094 -19.148438 9.058594 -19.335938 9.058594 -19.59375 L 9.058594 -20.113281 C 9.058594 -20.371094 9.246094 -20.558594 9.503906 -20.558594 L 10.019531 -20.558594 C 10.277344 -20.558594 10.464844 -20.371094 10.464844 -20.113281 L 10.464844 -17.484375 C 10.464844 -17.226562 10.652344 -17.039062 10.914062 -17.039062 L 11.429688 -17.039062 C 11.6875 -17.039062 11.875 -16.851562 11.875 -16.589844 L 11.875 -16.074219 C 11.875 -15.816406 12.0625 -15.628906 12.320312 -15.628906 L 15.886719 -15.628906 C 16.144531 -15.628906 16.332031 -15.816406 16.332031 -16.074219 L 16.332031 -20.113281 C 16.332031 -20.371094 16.144531 -20.558594 15.886719 -20.558594 L 14.199219 -20.558594 C 13.941406 -20.558594 13.753906 -20.746094 13.753906 -21.003906 L 13.753906 -21.519531 C 13.753906 -21.777344 13.5625 -21.964844 13.304688 -21.964844 L 4.574219 -21.964844 C 4.316406 -21.964844 4.128906 -21.777344 4.128906 -21.519531 L 4.128906 -21.003906 C 4.128906 -20.746094 3.941406 -20.558594 3.683594 -20.558594 L 3.167969 -20.558594 C 2.910156 -20.558594 2.722656 -20.371094 2.722656 -20.113281 L 2.722656 -19.617188 C 2.722656 -19.335938 2.535156 -19.148438 2.253906 -19.148438 L 1.785156 -19.148438 C 1.5 -19.148438 1.3125 -18.960938 1.3125 -18.679688 L 1.3125 -13.988281 C 1.3125 -13.703125 1.5 -13.515625 1.785156 -13.515625 L 2.253906 -13.515625 C 2.535156 -13.515625 2.722656 -13.328125 2.722656 -13.046875 L 2.722656 -12.554688 C 2.722656 -12.296875 2.910156 -12.109375 3.167969 -12.109375 L 3.683594 -12.109375 C 3.941406 -12.109375 4.128906 -11.921875 4.128906 -11.664062 L 4.128906 -11.148438 C 4.128906 -10.890625 4.316406 -10.703125 4.574219 -10.703125 L 8.613281 -10.703125 C 8.871094 -10.703125 9.058594 -10.511719 9.058594 -10.253906 L 9.058594 -9.738281 C 9.058594 -9.480469 9.246094 -9.292969 9.503906 -9.292969 L 10.019531 -9.292969 C 10.277344 -9.292969 10.464844 -9.105469 10.464844 -8.847656 L 10.464844 -3.261719 C 10.464844 -3.003906 10.277344 -2.816406 10.019531 -2.816406 L 9.246094 -2.816406 C 8.988281 -2.816406 8.800781 -2.628906 8.800781 -2.371094 L 8.800781 -1.855469 C 8.800781 -1.597656 8.613281 -1.40625 8.355469 -1.40625 L 7.839844 -1.40625 C 7.578125 -1.40625 7.390625 -1.597656 7.390625 -1.855469 L 7.390625 -5.890625 C 7.390625 -6.148438 7.203125 -6.335938 6.945312 -6.335938 L 1.5 -6.335938 C 1.242188 -6.335938 1.054688 -6.148438 1.054688 -5.890625 L 1.054688 -1.855469 C 1.054688 -1.597656 1.242188 -1.40625 1.5 -1.40625 L 2.019531 -1.40625 C 2.277344 -1.40625 2.464844 -1.21875 2.464844 -0.960938 Z M 2.464844 -0.445312 "/></g></g></g><g fill="#ffffff" fill-opacity="1"><g transform="translate(258.814851, 198.379381)"><g><path d="M 2.464844 -0.445312 C 2.464844 -0.1875 2.628906 0 2.886719 0 L 13.5625 0 C 13.824219 0 13.988281 -0.1875 13.988281 -0.445312 L 13.988281 -0.960938 C 13.988281 -1.21875 14.175781 -1.40625 14.433594 -1.40625 L 14.949219 -1.40625 C 15.207031 -1.40625 15.394531 -1.597656 15.394531 -1.855469 L 15.394531 -2.347656 C 15.394531 -2.628906 15.582031 -2.816406 15.863281 -2.816406 L 16.332031 -2.816406 C 16.613281 -2.816406 16.800781 -3.003906 16.800781 -3.285156 L 16.800781 -8.824219 C 16.800781 -9.105469 16.613281 -9.292969 16.332031 -9.292969 L 15.863281 -9.292969 C 15.582031 -9.292969 15.394531 -9.480469 15.394531 -9.761719 L 15.394531 -10.253906 C 15.394531 -10.511719 15.207031 -10.703125 14.949219 -10.703125 L 14.433594 -10.703125 C 14.175781 -10.703125 13.988281 -10.890625 13.988281 -11.148438 L 13.988281 -11.664062 C 13.988281 -11.921875 13.800781 -12.109375 13.539062 -12.109375 L 9.738281 -12.109375 C 9.480469 -12.109375 9.292969 -12.296875 9.292969 -12.554688 L 9.292969 -13.070312 C 9.292969 -13.328125 9.105469 -13.515625 8.847656 -13.515625 L 8.097656 -13.515625 C 7.839844 -13.515625 7.652344 -13.703125 7.652344 -13.964844 L 7.652344 -18.703125 C 7.652344 -18.960938 7.839844 -19.148438 8.097656 -19.148438 L 8.613281 -19.148438 C 8.871094 -19.148438 9.058594 -19.335938 9.058594 -19.59375 L 9.058594 -20.113281 C 9.058594 -20.371094 9.246094 -20.558594 9.503906 -20.558594 L 10.019531 -20.558594 C 10.277344 -20.558594 10.464844 -20.371094 10.464844 -20.113281 L 10.464844 -17.484375 C 10.464844 -17.226562 10.652344 -17.039062 10.914062 -17.039062 L 11.429688 -17.039062 C 11.6875 -17.039062 11.875 -16.851562 11.875 -16.589844 L 11.875 -16.074219 C 11.875 -15.816406 12.0625 -15.628906 12.320312 -15.628906 L 15.886719 -15.628906 C 16.144531 -15.628906 16.332031 -15.816406 16.332031 -16.074219 L 16.332031 -20.113281 C 16.332031 -20.371094 16.144531 -20.558594 15.886719 -20.558594 L 14.199219 -20.558594 C 13.941406 -20.558594 13.753906 -20.746094 13.753906 -21.003906 L 13.753906 -21.519531 C 13.753906 -21.777344 13.5625 -21.964844 13.304688 -21.964844 L 4.574219 -21.964844 C 4.316406 -21.964844 4.128906 -21.777344 4.128906 -21.519531 L 4.128906 -21.003906 C 4.128906 -20.746094 3.941406 -20.558594 3.683594 -20.558594 L 3.167969 -20.558594 C 2.910156 -20.558594 2.722656 -20.371094 2.722656 -20.113281 L 2.722656 -19.617188 C 2.722656 -19.335938 2.535156 -19.148438 2.253906 -19.148438 L 1.785156 -19.148438 C 1.5 -19.148438 1.3125 -18.960938 1.3125 -18.679688 L 1.3125 -13.988281 C 1.3125 -13.703125 1.5 -13.515625 1.785156 -13.515625 L 2.253906 -13.515625 C 2.535156 -13.515625 2.722656 -13.328125 2.722656 -13.046875 L 2.722656 -12.554688 C 2.722656 -12.296875 2.910156 -12.109375 3.167969 -12.109375 L 3.683594 -12.109375 C 3.941406 -12.109375 4.128906 -11.921875 4.128906 -11.664062 L 4.128906 -11.148438 C 4.128906 -10.890625 4.316406 -10.703125 4.574219 -10.703125 L 8.613281 -10.703125 C 8.871094 -10.703125 9.058594 -10.511719 9.058594 -10.253906 L 9.058594 -9.738281 C 9.058594 -9.480469 9.246094 -9.292969 9.503906 -9.292969 L 10.019531 -9.292969 C 10.277344 -9.292969 10.464844 -9.105469 10.464844 -8.847656 L 10.464844 -3.261719 C 10.464844 -3.003906 10.277344 -2.816406 10.019531 -2.816406 L 9.246094 -2.816406 C 8.988281 -2.816406 8.800781 -2.628906 8.800781 -2.371094 L 8.800781 -1.855469 C 8.800781 -1.597656 8.613281 -1.40625 8.355469 -1.40625 L 7.839844 -1.40625 C 7.578125 -1.40625 7.390625 -1.597656 7.390625 -1.855469 L 7.390625 -5.890625 C 7.390625 -6.148438 7.203125 -6.335938 6.945312 -6.335938 L 1.5 -6.335938 C 1.242188 -6.335938 1.054688 -6.148438 1.054688 -5.890625 L 1.054688 -1.855469 C 1.054688 -1.597656 1.242188 -1.40625 1.5 -1.40625 L 2.019531 -1.40625 C 2.277344 -1.40625 2.464844 -1.21875 2.464844 -0.960938 Z M 2.464844 -0.445312 "/></g></g></g></svg>