<?xml version="1.0" standalone="no"?>
<!DOCTYPE svg PUBLIC "-//W3C//DTD SVG 20010904//EN"
 "http://www.w3.org/TR/2001/REC-SVG-20010904/DTD/svg10.dtd">
<svg version="1.0" xmlns="http://www.w3.org/2000/svg"
 width="500.000000pt" height="500.000000pt" viewBox="0 0 500.000000 500.000000"
 preserveAspectRatio="xMidYMid meet">

<g transform="translate(0.000000,500.000000) scale(0.100000,-0.100000)"
fill="#000000" stroke="none">
<path d="M0 2500 l0 -2500 2500 0 2500 0 0 2500 0 2500 -2500 0 -2500 0 0
-2500z m3071 478 c12 -22 8 -145 -5 -167 -5 -7 -51 -11 -136 -11 -104 0 -132
-3 -144 -16 -14 -13 -16 -63 -16 -388 0 -276 -3 -375 -12 -384 -8 -8 -51 -12
-126 -12 -101 0 -113 2 -102 15 7 8 25 15 41 15 33 0 45 15 29 35 -8 10 -31
15 -61 15 -41 0 -49 3 -49 19 0 21 19 31 55 31 54 0 36 37 -20 42 -32 2 -40 7
-40 23 0 18 8 21 70 25 62 4 70 7 70 25 0 18 -8 20 -85 25 -77 5 -85 7 -85 25
0 18 8 20 63 23 46 2 65 7 69 18 9 25 -16 34 -94 34 -65 0 -73 2 -73 19 0 27
18 31 130 31 98 0 125 9 101 33 -6 6 -40 12 -76 12 -70 1 -81 6 -72 30 4 10
19 15 45 15 44 0 67 17 51 37 -7 8 -34 13 -71 13 -56 0 -59 1 -56 23 3 21 8
22 96 25 90 3 93 4 90 25 -3 21 -7 22 -143 25 -77 1 -144 7 -149 12 -6 6 -4
15 4 25 10 12 34 15 111 15 54 0 100 4 103 8 16 26 -16 32 -184 34 -167 3
-175 4 -175 23 0 16 8 21 42 23 44 3 69 22 59 47 -4 11 -22 15 -71 15 -63 0
-66 1 -63 23 3 21 8 22 96 25 84 2 92 4 92 22 0 17 -7 20 -52 21 -29 1 -61 0
-71 -1 -24 -2 -47 18 -40 36 4 12 70 14 424 14 l418 0 12 -22z m-1071 -83 c17
-21 3 -35 -36 -35 -26 0 -34 4 -34 18 0 10 3 22 7 25 12 12 50 7 63 -8z m157
4 c25 -25 2 -39 -62 -39 -66 0 -85 11 -65 35 15 18 111 20 127 4z m8 -114 c0
-13 -8 -21 -24 -23 -28 -4 -46 11 -37 33 9 25 61 16 61 -10z m153 -97 c-3 -20
-10 -23 -58 -26 -61 -2 -86 8 -77 32 5 12 21 16 72 16 63 0 66 -1 63 -22z
m113 -185 c23 -26 -10 -33 -168 -33 -142 0 -153 1 -153 18 0 10 3 22 7 25 4 4
73 7 154 6 118 0 150 -3 160 -16z m-46 -108 c0 -16 -8 -21 -44 -23 -48 -4 -67
8 -57 33 4 12 17 15 53 13 40 -3 48 -6 48 -23z m40 -100 c0 -15 -8 -21 -29
-23 -30 -4 -48 12 -39 35 4 9 17 13 37 11 23 -2 31 -8 31 -23z m-10 -79 c29
-22 7 -38 -57 -43 -37 -3 -59 1 -73 12 -19 14 -19 16 -3 28 24 19 109 21 133
3z m32 -97 c18 -18 3 -39 -27 -39 -32 0 -45 13 -36 35 6 18 47 20 63 4z"/>
</g>
</svg>
